<?xml version="1.0" encoding="utf-8" ?>
<svg baseProfile="full" height="57.5mm" version="1.1" viewBox="0,0,306.20000000000005,57.5" width="306.20000000000005mm" xmlns="http://www.w3.org/2000/svg" xmlns:ev="http://www.w3.org/2001/xml-events" xmlns:xlink="http://www.w3.org/1999/xlink"><defs /><rect fill="#FFFFFF" height="57.5" width="306.20000000000005" x="0" y="0" /><text fill="#000000" style="font-size:6px; font-family:Arial; font-weight:bold;" x="10" y="10" /><text fill="#000000" style="font-size:3px; font-family:Arial;" x="10" y="14.4">2024: 152 hours</text><text fill="#000000" style="font-size:2.5px; font-family:Arial" x="10" y="18.3">Jan</text><rect fill="#56b4fd" height="4" rx="1" ry="1" width="4" x="10" y="19.7"><title>2024-01-01 47.95 mins</title></rect><rect fill="#7cc4fc" height="4" rx="1" ry="1" width="4" x="10" y="25.1"><title>2024-01-02 32.68 mins</title></rect><rect fill="#56b4fd" height="4" rx="1" ry="1" width="4" x="10" y="30.5"><title>2024-01-03 46.68 mins</title></rect><rect fill="#EBEDF0" height="4" rx="1" ry="1" width="4" x="10" y="35.9"><title>2024-01-04</title></rect><rect fill="#7cc4fc" height="4" rx="1" ry="1" width="4" x="10" y="41.300000000000004"><title>2024-01-05 29.13 mins</title></rect><rect fill="#80c6fc" height="4" rx="1" ry="1" width="4" x="10" y="46.699999999999996"><title>2024-01-06 4.33 mins</title></rect><rect fill="#EBEDF0" height="4" rx="1" ry="1" width="4" x="10" y="52.1"><title>2024-01-07</title></rect><rect fill="#80c6fc" height="4" rx="1" ry="1" width="4" x="15.4" y="19.7"><title>2024-01-08 3.97 mins</title></rect><rect fill="#7dc4fc" height="4" rx="1" ry="1" width="4" x="15.4" y="25.1"><title>2024-01-09 22.38 mins</title></rect><rect fill="#EBEDF0" height="4" rx="1" ry="1" width="4" x="15.4" y="30.5"><title>2024-01-10</title></rect><rect fill="#80c5fc" height="4" rx="1" ry="1" width="4" x="15.4" y="35.9"><title>2024-01-11 7.58 mins</title></rect><rect fill="#80c6fc" height="4" rx="1" ry="1" width="4" x="15.4" y="41.300000000000004"><title>2024-01-12 3.37 mins</title></rect><rect fill="#81c6fc" height="4" rx="1" ry="1" width="4" x="15.4" y="46.699999999999996"><title>2024-01-13 1.73 mins</title></rect><rect fill="#7ec5fc" height="4" rx="1" ry="1" width="4" x="15.4" y="52.1"><title>2024-01-14 17.13 mins</title></rect><rect fill="#81c6fc" height="4" rx="1" ry="1" width="4" x="20.8" y="19.7"><title>2024-01-15 0.03 mins</title></rect><rect fill="#EBEDF0" height="4" rx="1" ry="1" width="4" x="20.8" y="25.1"><title>2024-01-16</title></rect><rect fill="#81c6fc" height="4" rx="1" ry="1" width="4" x="20.8" y="30.5"><title>2024-01-17 0.15 mins</title></rect><rect fill="#7dc4fc" height="4" rx="1" ry="1" width="4" x="20.8" y="35.9"><title>2024-01-18 23.37 mins</title></rect><rect fill="#EBEDF0" height="4" rx="1" ry="1" width="4" x="20.8" y="41.300000000000004"><title>2024-01-19</title></rect><rect fill="#81c6fc" height="4" rx="1" ry="1" width="4" x="20.8" y="46.699999999999996"><title>2024-01-20 0.33 mins</title></rect><rect fill="#81c6fc" height="4" rx="1" ry="1" width="4" x="20.8" y="52.1"><title>2024-01-21 0.47 mins</title></rect><rect fill="#EBEDF0" height="4" rx="1" ry="1" width="4" x="26.200000000000003" y="19.7"><title>2024-01-22</title></rect><rect fill="#55b4fd" height="4" rx="1" ry="1" width="4" x="26.200000000000003" y="25.1"><title>2024-01-23 58.6 mins</title></rect><rect fill="#81c6fc" height="4" rx="1" ry="1" width="4" x="26.200000000000003" y="30.5"><title>2024-01-24 0.18 mins</title></rect><rect fill="#81c6fc" height="4" rx="1" ry="1" width="4" x="26.200000000000003" y="35.9"><title>2024-01-25 2.97 mins</title></rect><rect fill="#7ec5fc" height="4" rx="1" ry="1" width="4" x="26.200000000000003" y="41.300000000000004"><title>2024-01-26 19.68 mins</title></rect><rect fill="#80c5fc" height="4" rx="1" ry="1" width="4" x="26.200000000000003" y="46.699999999999996"><title>2024-01-27 8.92 mins</title></rect><rect fill="#81c6fc" height="4" rx="1" ry="1" width="4" x="26.200000000000003" y="52.1"><title>2024-01-28 2.82 mins</title></rect><rect fill="#81c6fc" height="4" rx="1" ry="1" width="4" x="31.6" y="19.7"><title>2024-01-29 2.43 mins</title></rect><rect fill="#7dc4fc" height="4" rx="1" ry="1" width="4" x="31.6" y="25.1"><title>2024-01-30 22.25 mins</title></rect><rect fill="#7dc4fc" height="4" rx="1" ry="1" width="4" x="31.6" y="30.5"><title>2024-01-31 21.98 mins</title></rect><rect fill="#7bc4fc" height="4" rx="1" ry="1" width="4" x="31.6" y="35.9"><title>2024-02-01 35.67 mins</title></rect><rect fill="#80c6fc" height="4" rx="1" ry="1" width="4" x="31.6" y="41.300000000000004"><title>2024-02-02 3.88 mins</title></rect><rect fill="#56b4fd" height="4" rx="1" ry="1" width="4" x="31.6" y="46.699999999999996"><title>2024-02-03 50.78 mins</title></rect><rect fill="#7ec5fc" height="4" rx="1" ry="1" width="4" x="31.6" y="52.1"><title>2024-02-04 17.87 mins</title></rect><text fill="#000000" style="font-size:2.5px; font-family:Arial" x="37.0" y="18.3">Feb</text><rect fill="#81c6fc" height="4" rx="1" ry="1" width="4" x="37.0" y="19.7"><title>2024-02-05 2.72 mins</title></rect><rect fill="#7fc5fc" height="4" rx="1" ry="1" width="4" x="37.0" y="25.1"><title>2024-02-06 11.88 mins</title></rect><rect fill="#7fc5fc" height="4" rx="1" ry="1" width="4" x="37.0" y="30.5"><title>2024-02-07 12.03 mins</title></rect><rect fill="#80c6fc" height="4" rx="1" ry="1" width="4" x="37.0" y="35.9"><title>2024-02-08 3.73 mins</title></rect><rect fill="#80c6fc" height="4" rx="1" ry="1" width="4" x="37.0" y="41.300000000000004"><title>2024-02-09 6.65 mins</title></rect><rect fill="#81c6fc" height="4" rx="1" ry="1" width="4" x="37.0" y="46.699999999999996"><title>2024-02-10 1.73 mins</title></rect><rect fill="#80c6fc" height="4" rx="1" ry="1" width="4" x="37.0" y="52.1"><title>2024-02-11 3.53 mins</title></rect><rect fill="#34A7FF" height="4" rx="1" ry="1" width="4" x="42.4" y="19.7"><title>2024-02-12 131.8 mins</title></rect><rect fill="#81c6fc" height="4" rx="1" ry="1" width="4" x="42.4" y="25.1"><title>2024-02-13 1.72 mins</title></rect><rect fill="#7ec5fc" height="4" rx="1" ry="1" width="4" x="42.4" y="30.5"><title>2024-02-14 19.68 mins</title></rect><rect fill="#80c6fc" height="4" rx="1" ry="1" width="4" x="42.4" y="35.9"><title>2024-02-15 4.85 mins</title></rect><rect fill="#81c6fc" height="4" rx="1" ry="1" width="4" x="42.4" y="41.300000000000004"><title>2024-02-16 0.05 mins</title></rect><rect fill="#81c6fc" height="4" rx="1" ry="1" width="4" x="42.4" y="46.699999999999996"><title>2024-02-17 0.28 mins</title></rect><rect fill="#81c6fc" height="4" rx="1" ry="1" width="4" x="42.4" y="52.1"><title>2024-02-18 0.33 mins</title></rect><rect fill="#81c6fc" height="4" rx="1" ry="1" width="4" x="47.8" y="19.7"><title>2024-02-19 0.03 mins</title></rect><rect fill="#80c6fc" height="4" rx="1" ry="1" width="4" x="47.8" y="25.1"><title>2024-02-20 3.87 mins</title></rect><rect fill="#81c6fc" height="4" rx="1" ry="1" width="4" x="47.8" y="30.5"><title>2024-02-21 0.22 mins</title></rect><rect fill="#80c6fc" height="4" rx="1" ry="1" width="4" x="47.8" y="35.9"><title>2024-02-22 4.32 mins</title></rect><rect fill="#81c6fc" height="4" rx="1" ry="1" width="4" x="47.8" y="41.300000000000004"><title>2024-02-23 0.97 mins</title></rect><rect fill="#80c6fc" height="4" rx="1" ry="1" width="4" x="47.8" y="46.699999999999996"><title>2024-02-24 4.17 mins</title></rect><rect fill="#56b4fd" height="4" rx="1" ry="1" width="4" x="47.8" y="52.1"><title>2024-02-25 48.83 mins</title></rect><rect fill="#80c6fc" height="4" rx="1" ry="1" width="4" x="53.199999999999996" y="19.7"><title>2024-02-26 5.83 mins</title></rect><rect fill="#81c6fc" height="4" rx="1" ry="1" width="4" x="53.199999999999996" y="25.1"><title>2024-02-27 0.13 mins</title></rect><rect fill="#81c6fc" height="4" rx="1" ry="1" width="4" x="53.199999999999996" y="30.5"><title>2024-02-28 0.22 mins</title></rect><rect fill="#81c6fc" height="4" rx="1" ry="1" width="4" x="53.199999999999996" y="35.9"><title>2024-02-29 1.77 mins</title></rect><rect fill="#81c6fc" height="4" rx="1" ry="1" width="4" x="53.199999999999996" y="41.300000000000004"><title>2024-03-01 0.45 mins</title></rect><rect fill="#34A7FF" height="4" rx="1" ry="1" width="4" x="53.199999999999996" y="46.699999999999996"><title>2024-03-02 183.07 mins</title></rect><rect fill="#34A7FF" height="4" rx="1" ry="1" width="4" x="53.199999999999996" y="52.1"><title>2024-03-03 291.12 mins</title></rect><text fill="#000000" style="font-size:2.5px; font-family:Arial" x="58.599999999999994" y="18.3">Mar</text><rect fill="#34A7FF" height="4" rx="1" ry="1" width="4" x="58.599999999999994" y="19.7"><title>2024-03-04 166.32 mins</title></rect><rect fill="#34A7FF" height="4" rx="1" ry="1" width="4" x="58.599999999999994" y="25.1"><title>2024-03-05 107.53 mins</title></rect><rect fill="#52b3fd" height="4" rx="1" ry="1" width="4" x="58.599999999999994" y="30.5"><title>2024-03-06 91.93 mins</title></rect><rect fill="#7ec5fc" height="4" rx="1" ry="1" width="4" x="58.599999999999994" y="35.9"><title>2024-03-07 18.6 mins</title></rect><rect fill="#34A7FF" height="4" rx="1" ry="1" width="4" x="58.599999999999994" y="41.300000000000004"><title>2024-03-08 113.15 mins</title></rect><rect fill="#7dc4fc" height="4" rx="1" ry="1" width="4" x="58.599999999999994" y="46.699999999999996"><title>2024-03-09 23.05 mins</title></rect><rect fill="#81c6fc" height="4" rx="1" ry="1" width="4" x="58.599999999999994" y="52.1"><title>2024-03-10 0.2 mins</title></rect><rect fill="#81c6fc" height="4" rx="1" ry="1" width="4" x="63.99999999999999" y="19.7"><title>2024-03-11 1.3 mins</title></rect><rect fill="#81c6fc" height="4" rx="1" ry="1" width="4" x="63.99999999999999" y="25.1"><title>2024-03-12 1.78 mins</title></rect><rect fill="#81c6fc" height="4" rx="1" ry="1" width="4" x="63.99999999999999" y="30.5"><title>2024-03-13 0.45 mins</title></rect><rect fill="#81c6fc" height="4" rx="1" ry="1" width="4" x="63.99999999999999" y="35.9"><title>2024-03-14 1.07 mins</title></rect><rect fill="#81c6fc" height="4" rx="1" ry="1" width="4" x="63.99999999999999" y="41.300000000000004"><title>2024-03-15 0.02 mins</title></rect><rect fill="#7cc4fc" height="4" rx="1" ry="1" width="4" x="63.99999999999999" y="46.699999999999996"><title>2024-03-16 28.85 mins</title></rect><rect fill="#53b3fd" height="4" rx="1" ry="1" width="4" x="63.99999999999999" y="52.1"><title>2024-03-17 85.75 mins</title></rect><rect fill="#56b4fd" height="4" rx="1" ry="1" width="4" x="69.39999999999999" y="19.7"><title>2024-03-18 53.37 mins</title></rect><rect fill="#EBEDF0" height="4" rx="1" ry="1" width="4" x="69.39999999999999" y="25.1"><title>2024-03-19</title></rect><rect fill="#81c6fc" height="4" rx="1" ry="1" width="4" x="69.39999999999999" y="30.5"><title>2024-03-20 0.05 mins</title></rect><rect fill="#7fc5fc" height="4" rx="1" ry="1" width="4" x="69.39999999999999" y="35.9"><title>2024-03-21 11.75 mins</title></rect><rect fill="#57b5fd" height="4" rx="1" ry="1" width="4" x="69.39999999999999" y="41.300000000000004"><title>2024-03-22 38.73 mins</title></rect><rect fill="#80c6fc" height="4" rx="1" ry="1" width="4" x="69.39999999999999" y="46.699999999999996"><title>2024-03-23 3.18 mins</title></rect><rect fill="#81c6fc" height="4" rx="1" ry="1" width="4" x="69.39999999999999" y="52.1"><title>2024-03-24 1.8 mins</title></rect><rect fill="#34A7FF" height="4" rx="1" ry="1" width="4" x="74.8" y="19.7"><title>2024-03-25 104.88 mins</title></rect><rect fill="#52b3fd" height="4" rx="1" ry="1" width="4" x="74.8" y="25.1"><title>2024-03-26 99.8 mins</title></rect><rect fill="#80c6fc" height="4" rx="1" ry="1" width="4" x="74.8" y="30.5"><title>2024-03-27 6.17 mins</title></rect><rect fill="#53b3fd" height="4" rx="1" ry="1" width="4" x="74.8" y="35.9"><title>2024-03-28 83.75 mins</title></rect><rect fill="#81c6fc" height="4" rx="1" ry="1" width="4" x="74.8" y="41.300000000000004"><title>2024-03-29 2.28 mins</title></rect><rect fill="#81c6fc" height="4" rx="1" ry="1" width="4" x="74.8" y="46.699999999999996"><title>2024-03-30 0.58 mins</title></rect><rect fill="#81c6fc" height="4" rx="1" ry="1" width="4" x="74.8" y="52.1"><title>2024-03-31 0.03 mins</title></rect><text fill="#000000" style="font-size:2.5px; font-family:Arial" x="80.2" y="18.3">Apr</text><rect fill="#53b3fd" height="4" rx="1" ry="1" width="4" x="80.2" y="19.7"><title>2024-04-01 81.08 mins</title></rect><rect fill="#55b4fd" height="4" rx="1" ry="1" width="4" x="80.2" y="25.1"><title>2024-04-02 62.12 mins</title></rect><rect fill="#57b5fd" height="4" rx="1" ry="1" width="4" x="80.2" y="30.5"><title>2024-04-03 38.78 mins</title></rect><rect fill="#EBEDF0" height="4" rx="1" ry="1" width="4" x="80.2" y="35.9"><title>2024-04-04</title></rect><rect fill="#81c6fc" height="4" rx="1" ry="1" width="4" x="80.2" y="41.300000000000004"><title>2024-04-05 0.27 mins</title></rect><rect fill="#81c6fc" height="4" rx="1" ry="1" width="4" x="80.2" y="46.699999999999996"><title>2024-04-06 2.08 mins</title></rect><rect fill="#7ec5fc" height="4" rx="1" ry="1" width="4" x="80.2" y="52.1"><title>2024-04-07 19.18 mins</title></rect><rect fill="#34A7FF" height="4" rx="1" ry="1" width="4" x="85.60000000000001" y="19.7"><title>2024-04-08 126.72 mins</title></rect><rect fill="#81c6fc" height="4" rx="1" ry="1" width="4" x="85.60000000000001" y="25.1"><title>2024-04-09 0.07 mins</title></rect><rect fill="#81c6fc" height="4" rx="1" ry="1" width="4" x="85.60000000000001" y="30.5"><title>2024-04-10 0.35 mins</title></rect><rect fill="#80c6fc" height="4" rx="1" ry="1" width="4" x="85.60000000000001" y="35.9"><title>2024-04-11 3.32 mins</title></rect><rect fill="#81c6fc" height="4" rx="1" ry="1" width="4" x="85.60000000000001" y="41.300000000000004"><title>2024-04-12 0.03 mins</title></rect><rect fill="#7fc5fc" height="4" rx="1" ry="1" width="4" x="85.60000000000001" y="46.699999999999996"><title>2024-04-13 14.72 mins</title></rect><rect fill="#81c6fc" height="4" rx="1" ry="1" width="4" x="85.60000000000001" y="52.1"><title>2024-04-14 0.03 mins</title></rect><rect fill="#81c6fc" height="4" rx="1" ry="1" width="4" x="91.00000000000001" y="19.7"><title>2024-04-15 0.37 mins</title></rect><rect fill="#81c6fc" height="4" rx="1" ry="1" width="4" x="91.00000000000001" y="25.1"><title>2024-04-16 1.02 mins</title></rect><rect fill="#81c6fc" height="4" rx="1" ry="1" width="4" x="91.00000000000001" y="30.5"><title>2024-04-17 0.35 mins</title></rect><rect fill="#81c6fc" height="4" rx="1" ry="1" width="4" x="91.00000000000001" y="35.9"><title>2024-04-18 1.2 mins</title></rect><rect fill="#7dc4fc" height="4" rx="1" ry="1" width="4" x="91.00000000000001" y="41.300000000000004"><title>2024-04-19 22.62 mins</title></rect><rect fill="#81c6fc" height="4" rx="1" ry="1" width="4" x="91.00000000000001" y="46.699999999999996"><title>2024-04-20 2.3 mins</title></rect><rect fill="#57b5fd" height="4" rx="1" ry="1" width="4" x="91.00000000000001" y="52.1"><title>2024-04-21 38.7 mins</title></rect><rect fill="#53b3fd" height="4" rx="1" ry="1" width="4" x="96.40000000000002" y="19.7"><title>2024-04-22 89.23 mins</title></rect><rect fill="#53b3fd" height="4" rx="1" ry="1" width="4" x="96.40000000000002" y="25.1"><title>2024-04-23 88.83 mins</title></rect><rect fill="#53b3fd" height="4" rx="1" ry="1" width="4" x="96.40000000000002" y="30.5"><title>2024-04-24 90.0 mins</title></rect><rect fill="#7bc4fc" height="4" rx="1" ry="1" width="4" x="96.40000000000002" y="35.9"><title>2024-04-25 35.32 mins</title></rect><rect fill="#81c6fc" height="4" rx="1" ry="1" width="4" x="96.40000000000002" y="41.300000000000004"><title>2024-04-26 1.57 mins</title></rect><rect fill="#7cc4fc" height="4" rx="1" ry="1" width="4" x="96.40000000000002" y="46.699999999999996"><title>2024-04-27 33.05 mins</title></rect><rect fill="#34A7FF" height="4" rx="1" ry="1" width="4" x="96.40000000000002" y="52.1"><title>2024-04-28 130.97 mins</title></rect><rect fill="#54b4fd" height="4" rx="1" ry="1" width="4" x="101.80000000000003" y="19.7"><title>2024-04-29 75.45 mins</title></rect><rect fill="#81c6fc" height="4" rx="1" ry="1" width="4" x="101.80000000000003" y="25.1"><title>2024-04-30 0.05 mins</title></rect><rect fill="#34A7FF" height="4" rx="1" ry="1" width="4" x="101.80000000000003" y="30.5"><title>2024-05-01 130.17 mins</title></rect><rect fill="#54b4fd" height="4" rx="1" ry="1" width="4" x="101.80000000000003" y="35.9"><title>2024-05-02 73.1 mins</title></rect><rect fill="#7fc5fc" height="4" rx="1" ry="1" width="4" x="101.80000000000003" y="41.300000000000004"><title>2024-05-03 12.43 mins</title></rect><rect fill="#7ec5fc" height="4" rx="1" ry="1" width="4" x="101.80000000000003" y="46.699999999999996"><title>2024-05-04 16.42 mins</title></rect><rect fill="#53b3fd" height="4" rx="1" ry="1" width="4" x="101.80000000000003" y="52.1"><title>2024-05-05 83.05 mins</title></rect><text fill="#000000" style="font-size:2.5px; font-family:Arial" x="107.20000000000003" y="18.3">May</text><rect fill="#80c6fc" height="4" rx="1" ry="1" width="4" x="107.20000000000003" y="19.7"><title>2024-05-06 5.5 mins</title></rect><rect fill="#7cc4fc" height="4" rx="1" ry="1" width="4" x="107.20000000000003" y="25.1"><title>2024-05-07 33.03 mins</title></rect><rect fill="#34A7FF" height="4" rx="1" ry="1" width="4" x="107.20000000000003" y="30.5"><title>2024-05-08 160.62 mins</title></rect><rect fill="#80c6fc" height="4" rx="1" ry="1" width="4" x="107.20000000000003" y="35.9"><title>2024-05-09 4.95 mins</title></rect><rect fill="#34A7FF" height="4" rx="1" ry="1" width="4" x="107.20000000000003" y="41.300000000000004"><title>2024-05-10 129.7 mins</title></rect><rect fill="#54b4fd" height="4" rx="1" ry="1" width="4" x="107.20000000000003" y="46.699999999999996"><title>2024-05-11 72.87 mins</title></rect><rect fill="#7bc4fc" height="4" rx="1" ry="1" width="4" x="107.20000000000003" y="52.1"><title>2024-05-12 35.37 mins</title></rect><rect fill="#81c6fc" height="4" rx="1" ry="1" width="4" x="112.60000000000004" y="19.7"><title>2024-05-13 1.45 mins</title></rect><rect fill="#81c6fc" height="4" rx="1" ry="1" width="4" x="112.60000000000004" y="25.1"><title>2024-05-14 0.27 mins</title></rect><rect fill="#7dc4fc" height="4" rx="1" ry="1" width="4" x="112.60000000000004" y="30.5"><title>2024-05-15 22.27 mins</title></rect><rect fill="#81c6fc" height="4" rx="1" ry="1" width="4" x="112.60000000000004" y="35.9"><title>2024-05-16 0.27 mins</title></rect><rect fill="#81c6fc" height="4" rx="1" ry="1" width="4" x="112.60000000000004" y="41.300000000000004"><title>2024-05-17 1.95 mins</title></rect><rect fill="#81c6fc" height="4" rx="1" ry="1" width="4" x="112.60000000000004" y="46.699999999999996"><title>2024-05-18 0.03 mins</title></rect><rect fill="#80c6fc" height="4" rx="1" ry="1" width="4" x="112.60000000000004" y="52.1"><title>2024-05-19 7.2 mins</title></rect><rect fill="#EBEDF0" height="4" rx="1" ry="1" width="4" x="118.00000000000004" y="19.7"><title>2024-05-20</title></rect><rect fill="#EBEDF0" height="4" rx="1" ry="1" width="4" x="118.00000000000004" y="25.1"><title>2024-05-21</title></rect><rect fill="#81c6fc" height="4" rx="1" ry="1" width="4" x="118.00000000000004" y="30.5"><title>2024-05-22 1.08 mins</title></rect><rect fill="#81c6fc" height="4" rx="1" ry="1" width="4" x="118.00000000000004" y="35.9"><title>2024-05-23 0.08 mins</title></rect><rect fill="#80c5fc" height="4" rx="1" ry="1" width="4" x="118.00000000000004" y="41.300000000000004"><title>2024-05-24 7.75 mins</title></rect><rect fill="#81c6fc" height="4" rx="1" ry="1" width="4" x="118.00000000000004" y="46.699999999999996"><title>2024-05-25 1.17 mins</title></rect><rect fill="#80c6fc" height="4" rx="1" ry="1" width="4" x="118.00000000000004" y="52.1"><title>2024-05-26 3.78 mins</title></rect><rect fill="#7fc5fc" height="4" rx="1" ry="1" width="4" x="123.40000000000005" y="19.7"><title>2024-05-27 11.42 mins</title></rect><rect fill="#55b4fd" height="4" rx="1" ry="1" width="4" x="123.40000000000005" y="25.1"><title>2024-05-28 61.47 mins</title></rect><rect fill="#7cc4fc" height="4" rx="1" ry="1" width="4" x="123.40000000000005" y="30.5"><title>2024-05-29 28.28 mins</title></rect><rect fill="#81c6fc" height="4" rx="1" ry="1" width="4" x="123.40000000000005" y="35.9"><title>2024-05-30 0.1 mins</title></rect><rect fill="#EBEDF0" height="4" rx="1" ry="1" width="4" x="123.40000000000005" y="41.300000000000004"><title>2024-05-31</title></rect><rect fill="#7fc5fc" height="4" rx="1" ry="1" width="4" x="123.40000000000005" y="46.699999999999996"><title>2024-06-01 14.0 mins</title></rect><rect fill="#7dc5fc" height="4" rx="1" ry="1" width="4" x="123.40000000000005" y="52.1"><title>2024-06-02 21.55 mins</title></rect><text fill="#000000" style="font-size:2.5px; font-family:Arial" x="128.80000000000004" y="18.3">Jun</text><rect fill="#81c6fc" height="4" rx="1" ry="1" width="4" x="128.80000000000004" y="19.7"><title>2024-06-03 0.03 mins</title></rect><rect fill="#EBEDF0" height="4" rx="1" ry="1" width="4" x="128.80000000000004" y="25.1"><title>2024-06-04</title></rect><rect fill="#80c6fc" height="4" rx="1" ry="1" width="4" x="128.80000000000004" y="30.5"><title>2024-06-05 6.95 mins</title></rect><rect fill="#81c6fc" height="4" rx="1" ry="1" width="4" x="128.80000000000004" y="35.9"><title>2024-06-06 0.7 mins</title></rect><rect fill="#81c6fc" height="4" rx="1" ry="1" width="4" x="128.80000000000004" y="41.300000000000004"><title>2024-06-07 0.08 mins</title></rect><rect fill="#80c6fc" height="4" rx="1" ry="1" width="4" x="128.80000000000004" y="46.699999999999996"><title>2024-06-08 3.53 mins</title></rect><rect fill="#7fc5fc" height="4" rx="1" ry="1" width="4" x="128.80000000000004" y="52.1"><title>2024-06-09 9.48 mins</title></rect><rect fill="#53b3fd" height="4" rx="1" ry="1" width="4" x="134.20000000000005" y="19.7"><title>2024-06-10 83.23 mins</title></rect><rect fill="#55b4fd" height="4" rx="1" ry="1" width="4" x="134.20000000000005" y="25.1"><title>2024-06-11 58.13 mins</title></rect><rect fill="#80c5fc" height="4" rx="1" ry="1" width="4" x="134.20000000000005" y="30.5"><title>2024-06-12 8.2 mins</title></rect><rect fill="#7dc4fc" height="4" rx="1" ry="1" width="4" x="134.20000000000005" y="35.9"><title>2024-06-13 27.3 mins</title></rect><rect fill="#81c6fc" height="4" rx="1" ry="1" width="4" x="134.20000000000005" y="41.300000000000004"><title>2024-06-14 2.2 mins</title></rect><rect fill="#EBEDF0" height="4" rx="1" ry="1" width="4" x="134.20000000000005" y="46.699999999999996"><title>2024-06-15</title></rect><rect fill="#81c6fc" height="4" rx="1" ry="1" width="4" x="134.20000000000005" y="52.1"><title>2024-06-16 1.33 mins</title></rect><rect fill="#80c6fc" height="4" rx="1" ry="1" width="4" x="139.60000000000005" y="19.7"><title>2024-06-17 4.8 mins</title></rect><rect fill="#EBEDF0" height="4" rx="1" ry="1" width="4" x="139.60000000000005" y="25.1"><title>2024-06-18</title></rect><rect fill="#EBEDF0" height="4" rx="1" ry="1" width="4" x="139.60000000000005" y="30.5"><title>2024-06-19</title></rect><rect fill="#81c6fc" height="4" rx="1" ry="1" width="4" x="139.60000000000005" y="35.9"><title>2024-06-20 0.13 mins</title></rect><rect fill="#81c6fc" height="4" rx="1" ry="1" width="4" x="139.60000000000005" y="41.300000000000004"><title>2024-06-21 0.05 mins</title></rect><rect fill="#81c6fc" height="4" rx="1" ry="1" width="4" x="139.60000000000005" y="46.699999999999996"><title>2024-06-22 1.8 mins</title></rect><rect fill="#81c6fc" height="4" rx="1" ry="1" width="4" x="139.60000000000005" y="52.1"><title>2024-06-23 2.23 mins</title></rect><rect fill="#80c5fc" height="4" rx="1" ry="1" width="4" x="145.00000000000006" y="19.7"><title>2024-06-24 7.55 mins</title></rect><rect fill="#80c6fc" height="4" rx="1" ry="1" width="4" x="145.00000000000006" y="25.1"><title>2024-06-25 3.93 mins</title></rect><rect fill="#55b4fd" height="4" rx="1" ry="1" width="4" x="145.00000000000006" y="30.5"><title>2024-06-26 61.48 mins</title></rect><rect fill="#34A7FF" height="4" rx="1" ry="1" width="4" x="145.00000000000006" y="35.9"><title>2024-06-27 146.88 mins</title></rect><rect fill="#53b3fd" height="4" rx="1" ry="1" width="4" x="145.00000000000006" y="41.300000000000004"><title>2024-06-28 91.03 mins</title></rect><rect fill="#7dc4fc" height="4" rx="1" ry="1" width="4" x="145.00000000000006" y="46.699999999999996"><title>2024-06-29 26.85 mins</title></rect><rect fill="#34A7FF" height="4" rx="1" ry="1" width="4" x="145.00000000000006" y="52.1"><title>2024-06-30 109.95 mins</title></rect><text fill="#000000" style="font-size:2.5px; font-family:Arial" x="150.40000000000006" y="18.3">Jul</text><rect fill="#80c5fc" height="4" rx="1" ry="1" width="4" x="150.40000000000006" y="19.7"><title>2024-07-01 7.48 mins</title></rect><rect fill="#7fc5fc" height="4" rx="1" ry="1" width="4" x="150.40000000000006" y="25.1"><title>2024-07-02 15.13 mins</title></rect><rect fill="#80c6fc" height="4" rx="1" ry="1" width="4" x="150.40000000000006" y="30.5"><title>2024-07-03 6.62 mins</title></rect><rect fill="#7bc4fc" height="4" rx="1" ry="1" width="4" x="150.40000000000006" y="35.9"><title>2024-07-04 34.93 mins</title></rect><rect fill="#56b4fd" height="4" rx="1" ry="1" width="4" x="150.40000000000006" y="41.300000000000004"><title>2024-07-05 45.85 mins</title></rect><rect fill="#56b4fd" height="4" rx="1" ry="1" width="4" x="150.40000000000006" y="46.699999999999996"><title>2024-07-06 46.67 mins</title></rect><rect fill="#52b3fd" height="4" rx="1" ry="1" width="4" x="150.40000000000006" y="52.1"><title>2024-07-07 102.78 mins</title></rect><rect fill="#7ec5fc" height="4" rx="1" ry="1" width="4" x="155.80000000000007" y="19.7"><title>2024-07-08 16.35 mins</title></rect><rect fill="#7dc4fc" height="4" rx="1" ry="1" width="4" x="155.80000000000007" y="25.1"><title>2024-07-09 24.38 mins</title></rect><rect fill="#57b5fd" height="4" rx="1" ry="1" width="4" x="155.80000000000007" y="30.5"><title>2024-07-10 40.95 mins</title></rect><rect fill="#81c6fc" height="4" rx="1" ry="1" width="4" x="155.80000000000007" y="35.9"><title>2024-07-11 0.82 mins</title></rect><rect fill="#EBEDF0" height="4" rx="1" ry="1" width="4" x="155.80000000000007" y="41.300000000000004"><title>2024-07-12</title></rect><rect fill="#81c6fc" height="4" rx="1" ry="1" width="4" x="155.80000000000007" y="46.699999999999996"><title>2024-07-13 0.12 mins</title></rect><rect fill="#81c6fc" height="4" rx="1" ry="1" width="4" x="155.80000000000007" y="52.1"><title>2024-07-14 1.07 mins</title></rect><rect fill="#81c6fc" height="4" rx="1" ry="1" width="4" x="161.20000000000007" y="19.7"><title>2024-07-15 0.75 mins</title></rect><rect fill="#EBEDF0" height="4" rx="1" ry="1" width="4" x="161.20000000000007" y="25.1"><title>2024-07-16</title></rect><rect fill="#56b4fd" height="4" rx="1" ry="1" width="4" x="161.20000000000007" y="30.5"><title>2024-07-17 52.7 mins</title></rect><rect fill="#52b3fd" height="4" rx="1" ry="1" width="4" x="161.20000000000007" y="35.9"><title>2024-07-18 98.0 mins</title></rect><rect fill="#7ec5fc" height="4" rx="1" ry="1" width="4" x="161.20000000000007" y="41.300000000000004"><title>2024-07-19 18.9 mins</title></rect><rect fill="#80c6fc" height="4" rx="1" ry="1" width="4" x="161.20000000000007" y="46.699999999999996"><title>2024-07-20 5.38 mins</title></rect><rect fill="#57b5fd" height="4" rx="1" ry="1" width="4" x="161.20000000000007" y="52.1"><title>2024-07-21 39.7 mins</title></rect><rect fill="#7dc4fc" height="4" rx="1" ry="1" width="4" x="166.60000000000008" y="19.7"><title>2024-07-22 24.4 mins</title></rect><rect fill="#52b3fd" height="4" rx="1" ry="1" width="4" x="166.60000000000008" y="25.1"><title>2024-07-23 101.33 mins</title></rect><rect fill="#56b4fd" height="4" rx="1" ry="1" width="4" x="166.60000000000008" y="30.5"><title>2024-07-24 53.72 mins</title></rect><rect fill="#52b3fd" height="4" rx="1" ry="1" width="4" x="166.60000000000008" y="35.9"><title>2024-07-25 93.63 mins</title></rect><rect fill="#7cc4fc" height="4" rx="1" ry="1" width="4" x="166.60000000000008" y="41.300000000000004"><title>2024-07-26 33.18 mins</title></rect><rect fill="#56b4fd" height="4" rx="1" ry="1" width="4" x="166.60000000000008" y="46.699999999999996"><title>2024-07-27 54.33 mins</title></rect><rect fill="#80c6fc" height="4" rx="1" ry="1" width="4" x="166.60000000000008" y="52.1"><title>2024-07-28 6.18 mins</title></rect><rect fill="#81c6fc" height="4" rx="1" ry="1" width="4" x="172.00000000000009" y="19.7"><title>2024-07-29 0.52 mins</title></rect><rect fill="#7fc5fc" height="4" rx="1" ry="1" width="4" x="172.00000000000009" y="25.1"><title>2024-07-30 11.0 mins</title></rect><rect fill="#81c6fc" height="4" rx="1" ry="1" width="4" x="172.00000000000009" y="30.5"><title>2024-07-31 0.02 mins</title></rect><rect fill="#56b5fd" height="4" rx="1" ry="1" width="4" x="172.00000000000009" y="35.9"><title>2024-08-01 43.07 mins</title></rect><rect fill="#34A7FF" height="4" rx="1" ry="1" width="4" x="172.00000000000009" y="41.300000000000004"><title>2024-08-02 163.0 mins</title></rect><rect fill="#34A7FF" height="4" rx="1" ry="1" width="4" x="172.00000000000009" y="46.699999999999996"><title>2024-08-03 265.28 mins</title></rect><rect fill="#34A7FF" height="4" rx="1" ry="1" width="4" x="172.00000000000009" y="52.1"><title>2024-08-04 163.5 mins</title></rect><text fill="#000000" style="font-size:2.5px; font-family:Arial" x="177.4000000000001" y="18.3">Aug</text><rect fill="#81c6fc" height="4" rx="1" ry="1" width="4" x="177.4000000000001" y="19.7"><title>2024-08-05 0.57 mins</title></rect><rect fill="#81c6fc" height="4" rx="1" ry="1" width="4" x="177.4000000000001" y="25.1"><title>2024-08-06 0.57 mins</title></rect><rect fill="#81c6fc" height="4" rx="1" ry="1" width="4" x="177.4000000000001" y="30.5"><title>2024-08-07 2.63 mins</title></rect><rect fill="#81c6fc" height="4" rx="1" ry="1" width="4" x="177.4000000000001" y="35.9"><title>2024-08-08 2.53 mins</title></rect><rect fill="#81c6fc" height="4" rx="1" ry="1" width="4" x="177.4000000000001" y="41.300000000000004"><title>2024-08-09 0.03 mins</title></rect><rect fill="#81c6fc" height="4" rx="1" ry="1" width="4" x="177.4000000000001" y="46.699999999999996"><title>2024-08-10 1.0 mins</title></rect><rect fill="#81c6fc" height="4" rx="1" ry="1" width="4" x="177.4000000000001" y="52.1"><title>2024-08-11 1.7 mins</title></rect><rect fill="#7ec5fc" height="4" rx="1" ry="1" width="4" x="182.8000000000001" y="19.7"><title>2024-08-12 20.87 mins</title></rect><rect fill="#81c6fc" height="4" rx="1" ry="1" width="4" x="182.8000000000001" y="25.1"><title>2024-08-13 0.12 mins</title></rect><rect fill="#EBEDF0" height="4" rx="1" ry="1" width="4" x="182.8000000000001" y="30.5"><title>2024-08-14</title></rect><rect fill="#81c6fc" height="4" rx="1" ry="1" width="4" x="182.8000000000001" y="35.9"><title>2024-08-15 0.03 mins</title></rect><rect fill="#81c6fc" height="4" rx="1" ry="1" width="4" x="182.8000000000001" y="41.300000000000004"><title>2024-08-16 0.18 mins</title></rect><rect fill="#EBEDF0" height="4" rx="1" ry="1" width="4" x="182.8000000000001" y="46.699999999999996"><title>2024-08-17</title></rect><rect fill="#EBEDF0" height="4" rx="1" ry="1" width="4" x="182.8000000000001" y="52.1"><title>2024-08-18</title></rect><rect fill="#81c6fc" height="4" rx="1" ry="1" width="4" x="188.2000000000001" y="19.7"><title>2024-08-19 0.3 mins</title></rect><rect fill="#EBEDF0" height="4" rx="1" ry="1" width="4" x="188.2000000000001" y="25.1"><title>2024-08-20</title></rect><rect fill="#81c6fc" height="4" rx="1" ry="1" width="4" x="188.2000000000001" y="30.5"><title>2024-08-21 1.62 mins</title></rect><rect fill="#53b3fd" height="4" rx="1" ry="1" width="4" x="188.2000000000001" y="35.9"><title>2024-08-22 90.58 mins</title></rect><rect fill="#81c6fc" height="4" rx="1" ry="1" width="4" x="188.2000000000001" y="41.300000000000004"><title>2024-08-23 0.85 mins</title></rect><rect fill="#81c6fc" height="4" rx="1" ry="1" width="4" x="188.2000000000001" y="46.699999999999996"><title>2024-08-24 0.03 mins</title></rect><rect fill="#EBEDF0" height="4" rx="1" ry="1" width="4" x="188.2000000000001" y="52.1"><title>2024-08-25</title></rect><rect fill="#81c6fc" height="4" rx="1" ry="1" width="4" x="193.6000000000001" y="19.7"><title>2024-08-26 0.57 mins</title></rect><rect fill="#7bc3fc" height="4" rx="1" ry="1" width="4" x="193.6000000000001" y="25.1"><title>2024-08-27 37.55 mins</title></rect><rect fill="#80c6fc" height="4" rx="1" ry="1" width="4" x="193.6000000000001" y="30.5"><title>2024-08-28 6.7 mins</title></rect><rect fill="#7ec5fc" height="4" rx="1" ry="1" width="4" x="193.6000000000001" y="35.9"><title>2024-08-29 16.63 mins</title></rect><rect fill="#7fc5fc" height="4" rx="1" ry="1" width="4" x="193.6000000000001" y="41.300000000000004"><title>2024-08-30 10.25 mins</title></rect><rect fill="#7bc4fc" height="4" rx="1" ry="1" width="4" x="193.6000000000001" y="46.699999999999996"><title>2024-08-31 34.5 mins</title></rect><rect fill="#34A7FF" height="4" rx="1" ry="1" width="4" x="193.6000000000001" y="52.1"><title>2024-09-01 179.42 mins</title></rect><text fill="#000000" style="font-size:2.5px; font-family:Arial" x="199.0000000000001" y="18.3">Sep</text><rect fill="#81c6fc" height="4" rx="1" ry="1" width="4" x="199.0000000000001" y="19.7"><title>2024-09-02 0.73 mins</title></rect><rect fill="#81c6fc" height="4" rx="1" ry="1" width="4" x="199.0000000000001" y="25.1"><title>2024-09-03 0.33 mins</title></rect><rect fill="#80c6fc" height="4" rx="1" ry="1" width="4" x="199.0000000000001" y="30.5"><title>2024-09-04 7.27 mins</title></rect><rect fill="#EBEDF0" height="4" rx="1" ry="1" width="4" x="199.0000000000001" y="35.9"><title>2024-09-05</title></rect><rect fill="#7fc5fc" height="4" rx="1" ry="1" width="4" x="199.0000000000001" y="41.300000000000004"><title>2024-09-06 9.3 mins</title></rect><rect fill="#80c6fc" height="4" rx="1" ry="1" width="4" x="199.0000000000001" y="46.699999999999996"><title>2024-09-07 4.73 mins</title></rect><rect fill="#53b3fd" height="4" rx="1" ry="1" width="4" x="199.0000000000001" y="52.1"><title>2024-09-08 82.67 mins</title></rect><rect fill="#54b4fd" height="4" rx="1" ry="1" width="4" x="204.40000000000012" y="19.7"><title>2024-09-09 73.4 mins</title></rect><rect fill="#7fc5fc" height="4" rx="1" ry="1" width="4" x="204.40000000000012" y="25.1"><title>2024-09-10 14.68 mins</title></rect><rect fill="#81c6fc" height="4" rx="1" ry="1" width="4" x="204.40000000000012" y="30.5"><title>2024-09-11 0.1 mins</title></rect><rect fill="#7dc4fc" height="4" rx="1" ry="1" width="4" x="204.40000000000012" y="35.9"><title>2024-09-12 25.43 mins</title></rect><rect fill="#81c6fc" height="4" rx="1" ry="1" width="4" x="204.40000000000012" y="41.300000000000004"><title>2024-09-13 2.17 mins</title></rect><rect fill="#34A7FF" height="4" rx="1" ry="1" width="4" x="204.40000000000012" y="46.699999999999996"><title>2024-09-14 113.77 mins</title></rect><rect fill="#81c6fc" height="4" rx="1" ry="1" width="4" x="204.40000000000012" y="52.1"><title>2024-09-15 1.55 mins</title></rect><rect fill="#81c6fc" height="4" rx="1" ry="1" width="4" x="209.80000000000013" y="19.7"><title>2024-09-16 2.2 mins</title></rect><rect fill="#80c6fc" height="4" rx="1" ry="1" width="4" x="209.80000000000013" y="25.1"><title>2024-09-17 3.98 mins</title></rect><rect fill="#7cc4fc" height="4" rx="1" ry="1" width="4" x="209.80000000000013" y="30.5"><title>2024-09-18 28.32 mins</title></rect><rect fill="#80c6fc" height="4" rx="1" ry="1" width="4" x="209.80000000000013" y="35.9"><title>2024-09-19 6.65 mins</title></rect><rect fill="#80c6fc" height="4" rx="1" ry="1" width="4" x="209.80000000000013" y="41.300000000000004"><title>2024-09-20 6.58 mins</title></rect><rect fill="#7cc4fc" height="4" rx="1" ry="1" width="4" x="209.80000000000013" y="46.699999999999996"><title>2024-09-21 31.6 mins</title></rect><rect fill="#55b4fd" height="4" rx="1" ry="1" width="4" x="209.80000000000013" y="52.1"><title>2024-09-22 55.5 mins</title></rect><rect fill="#55b4fd" height="4" rx="1" ry="1" width="4" x="215.20000000000013" y="19.7"><title>2024-09-23 60.2 mins</title></rect><rect fill="#81c6fc" height="4" rx="1" ry="1" width="4" x="215.20000000000013" y="25.1"><title>2024-09-24 0.08 mins</title></rect><rect fill="#81c6fc" height="4" rx="1" ry="1" width="4" x="215.20000000000013" y="30.5"><title>2024-09-25 2.78 mins</title></rect><rect fill="#34A7FF" height="4" rx="1" ry="1" width="4" x="215.20000000000013" y="35.9"><title>2024-09-26 179.32 mins</title></rect><rect fill="#52b3fd" height="4" rx="1" ry="1" width="4" x="215.20000000000013" y="41.300000000000004"><title>2024-09-27 97.55 mins</title></rect><rect fill="#81c6fc" height="4" rx="1" ry="1" width="4" x="215.20000000000013" y="46.699999999999996"><title>2024-09-28 2.55 mins</title></rect><rect fill="#80c5fc" height="4" rx="1" ry="1" width="4" x="215.20000000000013" y="52.1"><title>2024-09-29 7.58 mins</title></rect><rect fill="#81c6fc" height="4" rx="1" ry="1" width="4" x="220.60000000000014" y="19.7"><title>2024-09-30 0.05 mins</title></rect><rect fill="#7fc5fc" height="4" rx="1" ry="1" width="4" x="220.60000000000014" y="25.1"><title>2024-10-01 10.57 mins</title></rect><rect fill="#81c6fc" height="4" rx="1" ry="1" width="4" x="220.60000000000014" y="30.5"><title>2024-10-02 0.07 mins</title></rect><rect fill="#EBEDF0" height="4" rx="1" ry="1" width="4" x="220.60000000000014" y="35.9"><title>2024-10-03</title></rect><rect fill="#81c6fc" height="4" rx="1" ry="1" width="4" x="220.60000000000014" y="41.300000000000004"><title>2024-10-04 0.73 mins</title></rect><rect fill="#80c6fc" height="4" rx="1" ry="1" width="4" x="220.60000000000014" y="46.699999999999996"><title>2024-10-05 5.98 mins</title></rect><rect fill="#81c6fc" height="4" rx="1" ry="1" width="4" x="220.60000000000014" y="52.1"><title>2024-10-06 0.23 mins</title></rect><text fill="#000000" style="font-size:2.5px; font-family:Arial" x="226.00000000000014" y="18.3">Oct</text><rect fill="#81c6fc" height="4" rx="1" ry="1" width="4" x="226.00000000000014" y="19.7"><title>2024-10-07 0.05 mins</title></rect><rect fill="#81c6fc" height="4" rx="1" ry="1" width="4" x="226.00000000000014" y="25.1"><title>2024-10-08 0.7 mins</title></rect><rect fill="#7fc5fc" height="4" rx="1" ry="1" width="4" x="226.00000000000014" y="30.5"><title>2024-10-09 10.27 mins</title></rect><rect fill="#80c5fc" height="4" rx="1" ry="1" width="4" x="226.00000000000014" y="35.9"><title>2024-10-10 8.07 mins</title></rect><rect fill="#55b4fd" height="4" rx="1" ry="1" width="4" x="226.00000000000014" y="41.300000000000004"><title>2024-10-11 60.18 mins</title></rect><rect fill="#56b4fd" height="4" rx="1" ry="1" width="4" x="226.00000000000014" y="46.699999999999996"><title>2024-10-12 50.77 mins</title></rect><rect fill="#53b3fd" height="4" rx="1" ry="1" width="4" x="226.00000000000014" y="52.1"><title>2024-10-13 88.73 mins</title></rect><rect fill="#34A7FF" height="4" rx="1" ry="1" width="4" x="231.40000000000015" y="19.7"><title>2024-10-14 153.62 mins</title></rect><rect fill="#7fc5fc" height="4" rx="1" ry="1" width="4" x="231.40000000000015" y="25.1"><title>2024-10-15 9.35 mins</title></rect><rect fill="#7bc3fc" height="4" rx="1" ry="1" width="4" x="231.40000000000015" y="30.5"><title>2024-10-16 38.12 mins</title></rect><rect fill="#7dc4fc" height="4" rx="1" ry="1" width="4" x="231.40000000000015" y="35.9"><title>2024-10-17 26.07 mins</title></rect><rect fill="#81c6fc" height="4" rx="1" ry="1" width="4" x="231.40000000000015" y="41.300000000000004"><title>2024-10-18 1.87 mins</title></rect><rect fill="#7fc5fc" height="4" rx="1" ry="1" width="4" x="231.40000000000015" y="46.699999999999996"><title>2024-10-19 14.72 mins</title></rect><rect fill="#80c6fc" height="4" rx="1" ry="1" width="4" x="231.40000000000015" y="52.1"><title>2024-10-20 7.08 mins</title></rect><rect fill="#7ec5fc" height="4" rx="1" ry="1" width="4" x="236.80000000000015" y="19.7"><title>2024-10-21 17.78 mins</title></rect><rect fill="#81c6fc" height="4" rx="1" ry="1" width="4" x="236.80000000000015" y="25.1"><title>2024-10-22 0.08 mins</title></rect><rect fill="#80c6fc" height="4" rx="1" ry="1" width="4" x="236.80000000000015" y="30.5"><title>2024-10-23 4.0 mins</title></rect><rect fill="#80c6fc" height="4" rx="1" ry="1" width="4" x="236.80000000000015" y="35.9"><title>2024-10-24 4.65 mins</title></rect><rect fill="#81c6fc" height="4" rx="1" ry="1" width="4" x="236.80000000000015" y="41.300000000000004"><title>2024-10-25 0.32 mins</title></rect><rect fill="#81c6fc" height="4" rx="1" ry="1" width="4" x="236.80000000000015" y="46.699999999999996"><title>2024-10-26 0.48 mins</title></rect><rect fill="#81c6fc" height="4" rx="1" ry="1" width="4" x="236.80000000000015" y="52.1"><title>2024-10-27 0.05 mins</title></rect><rect fill="#7fc5fc" height="4" rx="1" ry="1" width="4" x="242.20000000000016" y="19.7"><title>2024-10-28 12.9 mins</title></rect><rect fill="#81c6fc" height="4" rx="1" ry="1" width="4" x="242.20000000000016" y="25.1"><title>2024-10-29 2.77 mins</title></rect><rect fill="#7bc3fc" height="4" rx="1" ry="1" width="4" x="242.20000000000016" y="30.5"><title>2024-10-30 36.88 mins</title></rect><rect fill="#7ec5fc" height="4" rx="1" ry="1" width="4" x="242.20000000000016" y="35.9"><title>2024-10-31 19.87 mins</title></rect><rect fill="#81c6fc" height="4" rx="1" ry="1" width="4" x="242.20000000000016" y="41.300000000000004"><title>2024-11-01 0.22 mins</title></rect><rect fill="#81c6fc" height="4" rx="1" ry="1" width="4" x="242.20000000000016" y="46.699999999999996"><title>2024-11-02 1.5 mins</title></rect><rect fill="#34A7FF" height="4" rx="1" ry="1" width="4" x="242.20000000000016" y="52.1"><title>2024-11-03 152.78 mins</title></rect><text fill="#000000" style="font-size:2.5px; font-family:Arial" x="247.60000000000016" y="18.3">Nov</text><rect fill="#7fc5fc" height="4" rx="1" ry="1" width="4" x="247.60000000000016" y="19.7"><title>2024-11-04 13.57 mins</title></rect><rect fill="#34A7FF" height="4" rx="1" ry="1" width="4" x="247.60000000000016" y="25.1"><title>2024-11-05 117.4 mins</title></rect><rect fill="#57b5fd" height="4" rx="1" ry="1" width="4" x="247.60000000000016" y="30.5"><title>2024-11-06 42.37 mins</title></rect><rect fill="#53b3fd" height="4" rx="1" ry="1" width="4" x="247.60000000000016" y="35.9"><title>2024-11-07 89.05 mins</title></rect><rect fill="#81c6fc" height="4" rx="1" ry="1" width="4" x="247.60000000000016" y="41.300000000000004"><title>2024-11-08 2.37 mins</title></rect><rect fill="#7fc5fc" height="4" rx="1" ry="1" width="4" x="247.60000000000016" y="46.699999999999996"><title>2024-11-09 10.88 mins</title></rect><rect fill="#80c5fc" height="4" rx="1" ry="1" width="4" x="247.60000000000016" y="52.1"><title>2024-11-10 8.42 mins</title></rect><rect fill="#7fc5fc" height="4" rx="1" ry="1" width="4" x="253.00000000000017" y="19.7"><title>2024-11-11 9.88 mins</title></rect><rect fill="#34A7FF" height="4" rx="1" ry="1" width="4" x="253.00000000000017" y="25.1"><title>2024-11-12 136.88 mins</title></rect><rect fill="#81c6fc" height="4" rx="1" ry="1" width="4" x="253.00000000000017" y="30.5"><title>2024-11-13 1.25 mins</title></rect><rect fill="#80c6fc" height="4" rx="1" ry="1" width="4" x="253.00000000000017" y="35.9"><title>2024-11-14 6.45 mins</title></rect><rect fill="#81c6fc" height="4" rx="1" ry="1" width="4" x="253.00000000000017" y="41.300000000000004"><title>2024-11-15 1.03 mins</title></rect><rect fill="#81c6fc" height="4" rx="1" ry="1" width="4" x="253.00000000000017" y="46.699999999999996"><title>2024-11-16 0.93 mins</title></rect><rect fill="#80c5fc" height="4" rx="1" ry="1" width="4" x="253.00000000000017" y="52.1"><title>2024-11-17 8.2 mins</title></rect><rect fill="#80c6fc" height="4" rx="1" ry="1" width="4" x="258.40000000000015" y="19.7"><title>2024-11-18 4.82 mins</title></rect><rect fill="#81c6fc" height="4" rx="1" ry="1" width="4" x="258.40000000000015" y="25.1"><title>2024-11-19 0.73 mins</title></rect><rect fill="#7fc5fc" height="4" rx="1" ry="1" width="4" x="258.40000000000015" y="30.5"><title>2024-11-20 11.13 mins</title></rect><rect fill="#80c6fc" height="4" rx="1" ry="1" width="4" x="258.40000000000015" y="35.9"><title>2024-11-21 3.35 mins</title></rect><rect fill="#81c6fc" height="4" rx="1" ry="1" width="4" x="258.40000000000015" y="41.300000000000004"><title>2024-11-22 2.58 mins</title></rect><rect fill="#7ec5fc" height="4" rx="1" ry="1" width="4" x="258.40000000000015" y="46.699999999999996"><title>2024-11-23 21.05 mins</title></rect><rect fill="#80c6fc" height="4" rx="1" ry="1" width="4" x="258.40000000000015" y="52.1"><title>2024-11-24 5.63 mins</title></rect><rect fill="#80c6fc" height="4" rx="1" ry="1" width="4" x="263.8000000000001" y="19.7"><title>2024-11-25 3.97 mins</title></rect><rect fill="#81c6fc" height="4" rx="1" ry="1" width="4" x="263.8000000000001" y="25.1"><title>2024-11-26 0.63 mins</title></rect><rect fill="#80c5fc" height="4" rx="1" ry="1" width="4" x="263.8000000000001" y="30.5"><title>2024-11-27 7.48 mins</title></rect><rect fill="#80c6fc" height="4" rx="1" ry="1" width="4" x="263.8000000000001" y="35.9"><title>2024-11-28 4.95 mins</title></rect><rect fill="#7dc4fc" height="4" rx="1" ry="1" width="4" x="263.8000000000001" y="41.300000000000004"><title>2024-11-29 24.27 mins</title></rect><rect fill="#7dc4fc" height="4" rx="1" ry="1" width="4" x="263.8000000000001" y="46.699999999999996"><title>2024-11-30 26.13 mins</title></rect><rect fill="#81c6fc" height="4" rx="1" ry="1" width="4" x="263.8000000000001" y="52.1"><title>2024-12-01 0.3 mins</title></rect><text fill="#000000" style="font-size:2.5px; font-family:Arial" x="269.2000000000001" y="18.3">Dec</text><rect fill="#7fc5fc" height="4" rx="1" ry="1" width="4" x="269.2000000000001" y="19.7"><title>2024-12-02 9.23 mins</title></rect><rect fill="#81c6fc" height="4" rx="1" ry="1" width="4" x="269.2000000000001" y="25.1"><title>2024-12-03 0.7 mins</title></rect><rect fill="#56b4fd" height="4" rx="1" ry="1" width="4" x="269.2000000000001" y="30.5"><title>2024-12-04 51.45 mins</title></rect><rect fill="#80c6fc" height="4" rx="1" ry="1" width="4" x="269.2000000000001" y="35.9"><title>2024-12-05 3.33 mins</title></rect><rect fill="#80c6fc" height="4" rx="1" ry="1" width="4" x="269.2000000000001" y="41.300000000000004"><title>2024-12-06 5.8 mins</title></rect><rect fill="#7fc5fc" height="4" rx="1" ry="1" width="4" x="269.2000000000001" y="46.699999999999996"><title>2024-12-07 14.53 mins</title></rect><rect fill="#81c6fc" height="4" rx="1" ry="1" width="4" x="269.2000000000001" y="52.1"><title>2024-12-08 0.55 mins</title></rect><rect fill="#7dc4fc" height="4" rx="1" ry="1" width="4" x="274.6000000000001" y="19.7"><title>2024-12-09 23.55 mins</title></rect><rect fill="#7ec5fc" height="4" rx="1" ry="1" width="4" x="274.6000000000001" y="25.1"><title>2024-12-10 15.85 mins</title></rect><rect fill="#7bc3fc" height="4" rx="1" ry="1" width="4" x="274.6000000000001" y="30.5"><title>2024-12-11 38.4 mins</title></rect><rect fill="#7fc5fc" height="4" rx="1" ry="1" width="4" x="274.6000000000001" y="35.9"><title>2024-12-12 11.37 mins</title></rect><rect fill="#EBEDF0" height="4" rx="1" ry="1" width="4" x="274.6000000000001" y="41.300000000000004"><title>2024-12-13</title></rect><rect fill="#81c6fc" height="4" rx="1" ry="1" width="4" x="274.6000000000001" y="46.699999999999996"><title>2024-12-14 1.28 mins</title></rect><rect fill="#81c6fc" height="4" rx="1" ry="1" width="4" x="274.6000000000001" y="52.1"><title>2024-12-15 0.43 mins</title></rect><rect fill="#81c6fc" height="4" rx="1" ry="1" width="4" x="280.00000000000006" y="19.7"><title>2024-12-16 2.15 mins</title></rect><rect fill="#EBEDF0" height="4" rx="1" ry="1" width="4" x="280.00000000000006" y="25.1"><title>2024-12-17</title></rect><rect fill="#EBEDF0" height="4" rx="1" ry="1" width="4" x="280.00000000000006" y="30.5"><title>2024-12-18</title></rect><rect fill="#EBEDF0" height="4" rx="1" ry="1" width="4" x="280.00000000000006" y="35.9"><title>2024-12-19</title></rect><rect fill="#EBEDF0" height="4" rx="1" ry="1" width="4" x="280.00000000000006" y="41.300000000000004"><title>2024-12-20</title></rect><rect fill="#EBEDF0" height="4" rx="1" ry="1" width="4" x="280.00000000000006" y="46.699999999999996"><title>2024-12-21</title></rect><rect fill="#EBEDF0" height="4" rx="1" ry="1" width="4" x="280.00000000000006" y="52.1"><title>2024-12-22</title></rect><rect fill="#EBEDF0" height="4" rx="1" ry="1" width="4" x="285.40000000000003" y="19.7"><title>2024-12-23</title></rect><rect fill="#EBEDF0" height="4" rx="1" ry="1" width="4" x="285.40000000000003" y="25.1"><title>2024-12-24</title></rect><rect fill="#EBEDF0" height="4" rx="1" ry="1" width="4" x="285.40000000000003" y="30.5"><title>2024-12-25</title></rect><rect fill="#EBEDF0" height="4" rx="1" ry="1" width="4" x="285.40000000000003" y="35.9"><title>2024-12-26</title></rect><rect fill="#EBEDF0" height="4" rx="1" ry="1" width="4" x="285.40000000000003" y="41.300000000000004"><title>2024-12-27</title></rect><rect fill="#EBEDF0" height="4" rx="1" ry="1" width="4" x="285.40000000000003" y="46.699999999999996"><title>2024-12-28</title></rect><rect fill="#EBEDF0" height="4" rx="1" ry="1" width="4" x="285.40000000000003" y="52.1"><title>2024-12-29</title></rect><rect fill="#EBEDF0" height="4" rx="1" ry="1" width="4" x="290.8" y="19.7"><title>2024-12-30</title></rect><rect fill="#EBEDF0" height="4" rx="1" ry="1" width="4" x="290.8" y="25.1"><title>2024-12-31</title></rect></svg>